<svg width="103" height="100" viewBox="0 0 103 100" fill="none" xmlns="http://www.w3.org/2000/svg">
<g clip-path="url(#clip0_1312_561)">
<circle cx="61" cy="61" r="61" fill="#FF3B3B"/>
<path fill-rule="evenodd" clip-rule="evenodd" d="M48.2271 23.5114C46.8165 23.5125 45.4417 23.9556 44.296 24.7786C43.1504 25.6015 42.2915 26.7628 41.8401 28.0993C39.0109 28.2522 37.0273 28.6075 35.3631 29.4621C32.8302 30.7604 30.7691 32.8215 29.4708 35.3544C28 38.2421 28 42.0113 28 49.5678V69.3586C28 76.9151 28 80.6933 29.4708 83.572C30.7691 86.1049 32.8302 88.166 35.3631 89.4643C38.2507 90.9351 42.02 90.9351 49.5765 90.9351H61.0012C59.1877 89.6602 57.5538 88.1473 56.1434 86.4372H49.5765C45.7218 86.4372 43.0995 86.4372 41.0754 86.2707C39.1053 86.1088 38.0933 85.8164 37.3916 85.4611C35.699 84.5987 34.3229 83.2225 33.4605 81.5299C33.1006 80.8283 32.8083 79.8162 32.6508 77.8417C32.4844 75.8176 32.4799 73.2088 32.4799 69.3406V49.5498C32.4799 45.6996 32.4844 43.0728 32.6508 41.0488C32.8128 39.0832 33.1051 38.0711 33.4605 37.3695C34.3241 35.6782 35.7004 34.3019 37.3916 33.4383C38.0933 33.0785 39.1053 32.7861 41.0754 32.6287L41.4757 32.5972V34.7067C41.4757 36.4961 42.1866 38.2122 43.4518 39.4775C44.7171 40.7427 46.4332 41.4536 48.2226 41.4536H70.7121C72.5015 41.4536 74.2176 40.7427 75.4829 39.4775C76.7482 38.2122 77.459 36.4961 77.459 34.7067V32.5927L77.8593 32.6287C79.8294 32.7861 80.8414 33.0785 81.5431 33.4383C83.2343 34.3019 84.6107 35.6782 85.4743 37.3695C85.8341 38.0711 86.1265 39.0787 86.2839 41.0532C86.4368 42.9154 86.4503 45.2813 86.4548 48.6547C88.0681 49.4823 89.5674 50.4674 90.9527 51.6098V49.5543C90.9527 41.9978 90.9527 38.2196 89.4819 35.3409C88.1887 32.8044 86.1262 30.7419 83.5897 29.4486C81.9164 28.594 79.9464 28.2342 77.1127 28.0858C76.6613 26.7494 75.8024 25.588 74.6567 24.7651C73.511 23.9421 72.1362 23.499 70.7256 23.4979H69.5202C67.9639 20.8082 65.0583 19 61.7388 19H57.2409C53.9125 19 50.9888 20.8082 49.4595 23.4979H48.2541L48.2271 23.5114ZM52.6755 26.8848C52.4781 27.2267 52.1943 27.5106 51.8524 27.708C51.5105 27.9054 51.1227 28.0093 50.7279 28.0093H48.2271C47.6306 28.0093 47.0586 28.2463 46.6368 28.668C46.2151 29.0898 45.9781 29.6618 45.9781 30.2583V34.7562C45.9781 35.3526 46.2151 35.9247 46.6368 36.3464C47.0586 36.7682 47.6306 37.0051 48.2271 37.0051H70.7166C71.3131 37.0051 71.8851 36.7682 72.3069 36.3464C72.7287 35.9247 72.9656 35.3526 72.9656 34.7562V30.2583C72.9656 29.6618 72.7287 29.0898 72.3069 28.668C71.8851 28.2463 71.3131 28.0093 70.7166 28.0093H68.2158C67.821 28.0093 67.4332 27.9054 67.0914 27.708C66.7495 27.5106 66.4656 27.2267 66.2682 26.8848L65.6205 25.7604C65.2259 25.0751 64.6577 24.506 63.973 24.1104C63.2884 23.7147 62.5116 23.5066 61.7208 23.5069H57.2229C56.4322 23.5066 55.6553 23.7147 54.9707 24.1104C54.2861 24.506 53.7178 25.0751 53.3232 25.7604L52.6755 26.8848Z" fill="#F9F9F9"/>
<path d="M77.4633 61.7436C77.4633 61.1471 77.2263 60.5751 76.8046 60.1533C76.3828 59.7316 75.8108 59.4946 75.2143 59.4946C74.6179 59.4946 74.0458 59.7316 73.6241 60.1533C73.2023 60.5751 72.9654 61.1471 72.9654 61.7436V70.7394C72.9654 71.3359 73.2023 71.9079 73.6241 72.3297C74.0458 72.7514 74.6179 72.9884 75.2143 72.9884H81.9612C82.5576 72.9884 83.1297 72.7514 83.5514 72.3297C83.9732 71.9079 84.2101 71.3359 84.2101 70.7394C84.2101 70.1429 83.9732 69.5709 83.5514 69.1491C83.1297 68.7274 82.5576 68.4904 81.9612 68.4904H77.4633V61.7436Z" fill="#F9F9F9"/>
<path fill-rule="evenodd" clip-rule="evenodd" d="M75.2143 90.98C86.4141 90.98 95.4549 81.9392 95.4549 70.7394C95.4549 59.5396 86.4141 50.4988 75.2143 50.4988C64.0145 50.4988 54.9737 59.5396 54.9737 70.7394C54.9737 81.9392 64.0145 90.98 75.2143 90.98ZM75.2143 86.4821C83.8953 86.4821 90.957 79.4204 90.957 70.7394C90.957 62.0585 83.8953 54.9967 75.2143 54.9967C66.5334 54.9967 59.4716 62.0585 59.4716 70.7394C59.4716 79.4204 66.5334 86.4821 75.2143 86.4821Z" fill="#F9F9F9"/>
</g>
<defs>
<clipPath id="clip0_1312_561">
<rect width="103" height="100" fill="white"/>
</clipPath>
</defs>
</svg>
