<svg width="17" height="17" viewBox="0 0 17 17" fill="none" xmlns="http://www.w3.org/2000/svg">
<path d="M14.4604 5.50898L14.2703 5.94635C14.2406 6.01757 14.1905 6.07841 14.1263 6.1212C14.0621 6.164 13.9866 6.18683 13.9095 6.18683C13.8323 6.18683 13.7568 6.164 13.6926 6.1212C13.6284 6.07841 13.5783 6.01757 13.5486 5.94635L13.3585 5.50898C13.0243 4.73524 12.4122 4.11488 11.643 3.7703L11.0565 3.50833C10.9853 3.4756 10.925 3.42315 10.8828 3.35721C10.8405 3.29126 10.8181 3.21458 10.8181 3.13626C10.8181 3.05793 10.8405 2.98125 10.8828 2.91531C10.925 2.84936 10.9853 2.79691 11.0565 2.76418L11.6105 2.51767C12.399 2.16327 13.0216 1.51996 13.35 0.720263L13.5455 0.248115C13.5742 0.174977 13.6243 0.112187 13.6892 0.0679292C13.7541 0.0236717 13.8309 0 13.9095 0C13.988 0 14.0648 0.0236717 14.1297 0.0679292C14.1946 0.112187 14.2447 0.174977 14.2734 0.248115L14.4689 0.71949C14.7969 1.51934 15.4192 2.16293 16.2076 2.51767L16.7624 2.76495C16.8334 2.79778 16.8934 2.85022 16.9355 2.91608C16.9776 2.98194 17 3.05848 17 3.13664C17 3.21481 16.9776 3.29134 16.9355 3.35721C16.8934 3.42307 16.8334 3.47551 16.7624 3.50833L16.1751 3.76952C15.4061 4.11445 14.7943 4.73509 14.4604 5.50898ZM15.4549 8.50105C15.4549 8.15692 15.4331 7.81898 15.3893 7.48721C14.9123 7.64733 14.4125 7.72876 13.9095 7.72831C13.0956 7.72851 12.2961 7.5145 11.5912 7.10779V10.8193H10.0457V6.18281H10.4537C9.69211 5.33354 9.27154 4.23258 9.27297 3.09182C9.27297 2.3554 9.44452 1.65915 9.74976 1.04095C9.09044 0.862857 8.41042 0.772951 7.72748 0.773583C3.4596 0.773583 5.85817e-06 4.23317 5.85817e-06 8.50105C-0.00124573 9.51602 0.198065 10.5212 0.586488 11.4589C0.974911 12.3966 1.54479 13.2484 2.26338 13.9651L5.85817e-06 16.2285H7.72748C11.9954 16.2285 15.4549 12.7689 15.4549 8.50105ZM6.95473 3.86457H8.50022V13.1375H6.95473V3.86457ZM3.86374 10.8193V6.18281H5.40924V10.8193H3.86374Z" fill="#F9F9F9"/>
</svg>
