<svg width="16" height="16" viewBox="0 0 16 16" fill="none" xmlns="http://www.w3.org/2000/svg">
<path fill-rule="evenodd" clip-rule="evenodd" d="M11.2681 0.109609C11.5448 0.224216 11.7789 0.422244 11.9378 0.676127L13.068 2.47803C13.1835 2.66212 13.339 2.8177 13.5231 2.93312L15.3262 4.06219C15.5796 4.22117 15.7773 4.45515 15.8917 4.73161C16.0061 5.00807 16.0315 5.31329 15.9645 5.60487L15.4886 7.67753C15.4398 7.88982 15.4398 8.11042 15.4886 8.32271L15.9633 10.3942C16.0306 10.686 16.0053 10.9914 15.8909 11.2681C15.7765 11.5448 15.5787 11.779 15.325 11.938L13.522 13.0671C13.3376 13.1823 13.1821 13.3379 13.0669 13.5222L11.9378 15.3241C11.779 15.5778 11.5451 15.7757 11.2686 15.8903C10.9921 16.0048 10.6868 16.0305 10.3951 15.9635L8.32248 15.4877C8.11019 15.4389 7.88959 15.4389 7.6773 15.4877L5.60579 15.9635C5.00785 16.1006 4.38801 15.8437 4.06311 15.3241L2.93404 13.5222C2.81768 13.3379 2.66214 13.1823 2.4778 13.0671L0.675896 11.938C0.422232 11.7792 0.22435 11.5453 0.109755 11.2688C-0.00484048 10.9924 -0.0304551 10.6871 0.0364717 10.3954L0.512295 8.32271C0.560912 8.11079 0.560912 7.8906 0.512295 7.67868L0.0364717 5.60487C-0.030196 5.31334 -0.00445182 5.00828 0.110131 4.73205C0.224713 4.45581 0.422451 4.2221 0.675896 4.06334L2.4778 2.93427C2.66214 2.81791 2.81768 2.66237 2.93289 2.47803L4.06196 0.676127C4.22085 0.422244 4.45495 0.224216 4.73166 0.109609C5.00836 -0.00499828 5.31392 -0.030483 5.60579 0.0367032L7.6773 0.512527C7.88959 0.56132 8.11019 0.56132 8.32248 0.512527L10.394 0.0367032C10.6859 -0.030483 10.9914 -0.00499828 11.2681 0.109609ZM10.3958 5.00002L11.0001 5.6043L8.60435 8.00002L11.0001 10.3957L10.3958 11L8.00006 8.6043L5.60435 11L5.00006 10.3957L7.39578 8.00002L5.00006 5.6043L5.60435 5.00002L8.00006 7.39573L10.3958 5.00002Z" fill="#FF3C3C"/>
</svg>
