<svg width="14" height="14" viewBox="0 0 14 14" fill="none" xmlns="http://www.w3.org/2000/svg">
<g clip-path="url(#clip0_1356_590)">
<path d="M12.25 6.70833V8.75H10.5C10.0359 8.75 9.59075 8.93437 9.26256 9.26256C8.93437 9.59075 8.75 10.0359 8.75 10.5V12.25H2.625C2.39294 12.25 2.17038 12.1578 2.00628 11.9937C1.84219 11.8296 1.75 11.6071 1.75 11.375V2.625C1.75 2.39294 1.84219 2.17038 2.00628 2.00628C2.17038 1.84219 2.39294 1.75 2.625 1.75H7.875C8.10706 1.75 8.32962 1.65781 8.49372 1.49372C8.65781 1.32962 8.75 1.10706 8.75 0.875C8.75 0.642936 8.65781 0.420376 8.49372 0.256282C8.32962 0.0921872 8.10706 0 7.875 0L2.625 0C1.92881 0 1.26113 0.276562 0.768845 0.768845C0.276562 1.26113 0 1.92881 0 2.625L0 11.375C0 12.0712 0.276562 12.7389 0.768845 13.2312C1.26113 13.7234 1.92881 14 2.625 14H9.61567C10.3116 14 10.979 13.7237 11.4713 13.2317L13.2312 11.4718C13.7233 10.9797 13.9999 10.3122 14 9.61625V6.70833C14 6.47627 13.9078 6.25371 13.7437 6.08961C13.5796 5.92552 13.3571 5.83333 13.125 5.83333C12.8929 5.83333 12.6704 5.92552 12.5063 6.08961C12.3422 6.25371 12.25 6.47627 12.25 6.70833Z" fill="black"/>
<path d="M10.3793 1.04592L3.08766 8.33759C2.97826 8.44696 2.91678 8.59531 2.91675 8.75V10.5C2.91675 10.6547 2.97821 10.8031 3.0876 10.9125C3.197 11.0219 3.34537 11.0833 3.50008 11.0833H5.25008C5.40478 11.0833 5.55313 11.0218 5.6625 10.9124L12.8556 3.71934C13.099 3.48463 13.2779 3.19125 13.3752 2.8674C13.4724 2.54356 13.4847 2.20014 13.4109 1.87017C13.3283 1.56328 13.1668 1.28339 12.9423 1.05837C12.7179 0.833356 12.4384 0.671075 12.1318 0.587694C11.8251 0.504313 11.5019 0.502743 11.1944 0.583141C10.887 0.663538 10.6059 0.823096 10.3793 1.04592Z" fill="black"/>
</g>
<defs>
<clipPath id="clip0_1356_590">
<rect width="14" height="14" fill="white"/>
</clipPath>
</defs>
</svg>
