<svg width="30" height="26" viewBox="0 0 30 26" fill="none" xmlns="http://www.w3.org/2000/svg">
<path d="M28.8599 4.24057L16.581 0.250222C15.5548 -0.0834075 14.4452 -0.0834075 13.419 0.250222L1.13956 4.24057C0.807731 4.34848 0.519121 4.55543 0.314602 4.83212C0.110084 5.10881 2.13396e-05 5.44122 0 5.78228L0 8.27104L13.8029 4.23346C14.5857 4.00495 15.4133 4.00495 16.1976 4.23346L29.9995 8.27104V5.78228C29.9995 5.08303 29.5406 4.46198 28.8599 4.24057ZM14.282 5.7904L0 9.96814V21.5654C0 22.3272 0.542699 22.9863 1.30519 23.1518L13.9154 25.8838C14.6297 26.0387 15.3703 26.0387 16.0846 25.8838L28.6948 23.1518C29.4573 22.9868 30 22.3272 30 21.5654V9.96763L15.719 5.7904C15.2482 5.65228 14.7508 5.65228 14.282 5.7904ZM6.66655 11.685C6.66655 11.8684 6.54103 12.0288 6.35979 12.0771L2.19319 13.1851C1.92809 13.2552 1.66664 13.0607 1.66664 12.7931V11.9511C1.66664 11.7678 1.79216 11.6073 1.9734 11.5591L6.14 10.4511C6.4051 10.3805 6.66655 10.575 6.66655 10.8431V11.685ZM14.1664 9.69036C14.1664 9.87368 14.0409 10.0342 13.8597 10.0824L8.85974 11.4118C8.59464 11.4824 8.33319 11.2879 8.33319 11.0198V10.1779C8.33319 9.99454 8.45871 9.83407 8.63995 9.78583L13.6399 8.45639C13.905 8.38581 14.1664 8.5803 14.1664 8.84842V9.69036ZM23.3329 10.8431C23.3329 10.575 23.5944 10.3805 23.8595 10.4511L28.0261 11.5591C28.2073 11.6073 28.3328 11.7678 28.3328 11.9511V12.7931C28.3328 13.0612 28.0714 13.2557 27.8063 13.1851L23.6397 12.0771C23.5515 12.0536 23.4737 12.0025 23.4183 11.9316C23.3629 11.8608 23.3329 11.7741 23.3329 11.685V10.8431ZM15.8331 8.84893C15.8331 8.5808 16.0945 8.38631 16.3596 8.4569L21.3595 9.78634C21.5408 9.83458 21.6663 9.99505 21.6663 10.1784V11.0203C21.6663 11.2884 21.4048 11.4829 21.1397 11.4123L16.1398 10.0829C16.0517 10.0594 15.9739 10.0083 15.9184 9.93748C15.863 9.86664 15.833 9.77998 15.8331 9.69087V8.84893Z" fill="black"/>
</svg>
