<svg width="26" height="28" viewBox="0 0 26 28" fill="none" xmlns="http://www.w3.org/2000/svg">
<path d="M6.99999 17.7059C7.54602 17.7059 8.06969 17.489 8.45579 17.1029C8.8419 16.7168 9.05881 16.1931 9.05881 15.647C9.05881 15.101 8.8419 14.5773 8.45579 14.1912C8.06969 13.8051 7.54602 13.5882 6.99999 13.5882C6.45395 13.5882 5.93028 13.8051 5.54418 14.1912C5.15807 14.5773 4.94116 15.101 4.94116 15.647C4.94116 16.1931 5.15807 16.7168 5.54418 17.1029C5.93028 17.489 6.45395 17.7059 6.99999 17.7059ZM6.99999 23.4706C7.54602 23.4706 8.06969 23.2537 8.45579 22.8676C8.8419 22.4815 9.05881 21.9578 9.05881 21.4118C9.05881 20.8657 8.8419 20.3421 8.45579 19.9559C8.06969 19.5698 7.54602 19.3529 6.99999 19.3529C6.45395 19.3529 5.93028 19.5698 5.54418 19.9559C5.15807 20.3421 4.94116 20.8657 4.94116 21.4118C4.94116 21.9578 5.15807 22.4815 5.54418 22.8676C5.93028 23.2537 6.45395 23.4706 6.99999 23.4706ZM14.8235 15.647C14.8235 16.1931 14.6066 16.7168 14.2205 17.1029C13.8344 17.489 13.3107 17.7059 12.7647 17.7059C12.2187 17.7059 11.695 17.489 11.3089 17.1029C10.9228 16.7168 10.7059 16.1931 10.7059 15.647C10.7059 15.101 10.9228 14.5773 11.3089 14.1912C11.695 13.8051 12.2187 13.5882 12.7647 13.5882C13.3107 13.5882 13.8344 13.8051 14.2205 14.1912C14.6066 14.5773 14.8235 15.101 14.8235 15.647ZM12.7647 23.4706C13.3107 23.4706 13.8344 23.2537 14.2205 22.8676C14.6066 22.4815 14.8235 21.9578 14.8235 21.4118C14.8235 20.8657 14.6066 20.3421 14.2205 19.9559C13.8344 19.5698 13.3107 19.3529 12.7647 19.3529C12.2187 19.3529 11.695 19.5698 11.3089 19.9559C10.9228 20.3421 10.7059 20.8657 10.7059 21.4118C10.7059 21.9578 10.9228 22.4815 11.3089 22.8676C11.695 23.2537 12.2187 23.4706 12.7647 23.4706ZM20.5882 15.647C20.5882 16.1931 20.3713 16.7168 19.9852 17.1029C19.5991 17.489 19.0754 17.7059 18.5294 17.7059C17.9834 17.7059 17.4597 17.489 17.0736 17.1029C16.6875 16.7168 16.4706 16.1931 16.4706 15.647C16.4706 15.101 16.6875 14.5773 17.0736 14.1912C17.4597 13.8051 17.9834 13.5882 18.5294 13.5882C19.0754 13.5882 19.5991 13.8051 19.9852 14.1912C20.3713 14.5773 20.5882 15.101 20.5882 15.647Z" fill="#F9F9F9"/>
<path fill-rule="evenodd" clip-rule="evenodd" d="M6.17647 0C6.50409 0 6.81829 0.130147 7.04995 0.361809C7.28162 0.593472 7.41176 0.907674 7.41176 1.23529V2.47059H18.1176V1.23529C18.1176 0.907674 18.2478 0.593472 18.4795 0.361809C18.7111 0.130147 19.0253 0 19.3529 0C19.6806 0 19.9948 0.130147 20.2264 0.361809C20.4581 0.593472 20.5882 0.907674 20.5882 1.23529V2.48376C20.8386 2.49035 21.0719 2.50243 21.2882 2.52C21.9141 2.56941 22.5005 2.68141 23.0555 2.96471C23.908 3.39899 24.601 4.09203 25.0353 4.94447C25.3186 5.49953 25.4306 6.08588 25.48 6.71176C25.5294 7.31294 25.5294 8.04588 25.5294 8.92706V21.5435C25.5294 22.4247 25.5294 23.1576 25.48 23.7588C25.4306 24.3847 25.3186 24.9711 25.0353 25.5261C24.6014 26.3783 23.909 27.0713 23.0572 27.5059C22.5005 27.7892 21.9141 27.9012 21.2882 27.9506C20.6871 28 19.9541 28 19.0746 28H6.45647C5.57529 28 4.84235 28 4.24118 27.9506C3.61529 27.9012 3.02894 27.7892 2.47388 27.5059C1.62194 27.0725 0.928958 26.3806 0.494118 25.5294C0.210824 24.9727 0.0988239 24.3864 0.0494121 23.7605C3.46671e-07 23.1593 0 22.4264 0 21.5468V8.92706C0 8.04588 3.46671e-07 7.31294 0.0494121 6.71176C0.0988239 6.08588 0.210824 5.49953 0.494118 4.94447C0.928399 4.09203 1.62144 3.39899 2.47388 2.96471C3.02894 2.68141 3.61529 2.56941 4.24118 2.52C4.45749 2.50243 4.69082 2.49035 4.94118 2.48376V1.23529C4.94118 1.07307 4.97313 0.91244 5.03521 0.762568C5.09729 0.612695 5.18828 0.476517 5.30299 0.361809C5.41769 0.247101 5.55387 0.15611 5.70374 0.0940311C5.85362 0.0319517 6.01425 0 6.17647 0ZM4.94118 5.35294V4.95435C4.77461 4.95948 4.60821 4.96881 4.44212 4.98235C3.96941 5.02024 3.74376 5.08941 3.59553 5.16518C3.20751 5.36267 2.89208 5.6781 2.69459 6.06612C2.61882 6.21435 2.54965 6.44 2.51177 6.91271C2.47224 7.40024 2.47059 8.03271 2.47059 8.97647V9.88235H23.0588V8.97647C23.0588 8.03435 23.0588 7.40024 23.0176 6.91271C22.9798 6.44 22.9106 6.21435 22.8348 6.06612C22.6373 5.6781 22.3219 5.36267 21.9339 5.16518C21.7856 5.08941 21.56 5.02024 21.0856 4.98235C20.9201 4.96884 20.7542 4.9595 20.5882 4.95435V5.35294C20.5882 5.68056 20.4581 5.99476 20.2264 6.22643C19.9948 6.45809 19.6806 6.58824 19.3529 6.58824C19.0253 6.58824 18.7111 6.45809 18.4795 6.22643C18.2478 5.99476 18.1176 5.68056 18.1176 5.35294V4.94118H7.41176V5.35294C7.41176 5.68056 7.28162 5.99476 7.04995 6.22643C6.81829 6.45809 6.50409 6.58824 6.17647 6.58824C5.84885 6.58824 5.53465 6.45809 5.30299 6.22643C5.07132 5.99476 4.94118 5.68056 4.94118 5.35294ZM23.0588 11.5294H2.47059V21.4941C2.47059 22.4362 2.47059 23.0704 2.51177 23.5562C2.54965 24.0306 2.61882 24.2562 2.69459 24.4045C2.89224 24.7932 3.20682 25.1078 3.59553 25.3054C3.74376 25.3812 3.96941 25.4504 4.44212 25.4882C4.92965 25.5278 5.56212 25.5294 6.50588 25.5294H19.0235C19.9656 25.5294 20.5998 25.5294 21.0856 25.4882C21.56 25.4504 21.7856 25.3812 21.9339 25.3054C22.3219 25.1079 22.6373 24.7925 22.8348 24.4045C22.9106 24.2562 22.9798 24.0306 23.0176 23.5562C23.0572 23.0704 23.0588 22.4362 23.0588 21.4941V11.5294Z" fill="#F9F9F9"/>
<path fill-rule="evenodd" clip-rule="evenodd" d="M9.05884 7.41175C9.05884 7.08413 9.18899 6.76992 9.42065 6.53826C9.65231 6.3066 9.96651 6.17645 10.2941 6.17645H15.2353C15.5629 6.17645 15.8771 6.3066 16.1088 6.53826C16.3405 6.76992 16.4706 7.08413 16.4706 7.41175C16.4706 7.73937 16.3405 8.05357 16.1088 8.28523C15.8771 8.51689 15.5629 8.64704 15.2353 8.64704H10.2941C9.96651 8.64704 9.65231 8.51689 9.42065 8.28523C9.18899 8.05357 9.05884 7.73937 9.05884 7.41175Z" fill="#F9F9F9"/>
</svg>
