<svg width="20" height="21" viewBox="0 0 20 21" fill="none" xmlns="http://www.w3.org/2000/svg">
<path d="M0.833403 8.83236C0.612371 8.83236 0.400392 8.74456 0.244098 8.58826C0.0878048 8.43197 0 8.21999 0 7.99896V1.3334C0 1.11237 0.0878048 0.900391 0.244098 0.744098C0.400392 0.587805 0.612371 0.5 0.833403 0.5H7.50063C7.72166 0.5 7.93364 0.587805 8.08993 0.744098C8.24622 0.900391 8.33403 1.11237 8.33403 1.3334V7.99896C8.33403 8.21999 8.24622 8.43197 8.08993 8.58826C7.93364 8.74456 7.72166 8.83236 7.50063 8.83236H0.833403ZM12.501 8.83236C12.28 8.83236 12.068 8.74456 11.9117 8.58826C11.7554 8.43197 11.6676 8.21999 11.6676 7.99896V1.3334C11.6676 1.11237 11.7554 0.900391 11.9117 0.744098C12.068 0.587805 12.28 0.5 12.501 0.5H19.1666C19.3876 0.5 19.5996 0.587805 19.7559 0.744098C19.9122 0.900391 20 1.11237 20 1.3334V7.99896C20 8.21999 19.9122 8.43197 19.7559 8.58826C19.5996 8.74456 19.3876 8.83236 19.1666 8.83236H12.501ZM0.833403 20.5C0.612371 20.5 0.400392 20.4122 0.244098 20.2559C0.0878048 20.0996 0 19.8876 0 19.6666V12.9994C0 12.7783 0.0878048 12.5664 0.244098 12.4101C0.400392 12.2538 0.612371 12.166 0.833403 12.166H7.50063C7.72166 12.166 7.93364 12.2538 8.08993 12.4101C8.24622 12.5664 8.33403 12.7783 8.33403 12.9994V19.6666C8.33403 19.8876 8.24622 20.0996 8.08993 20.2559C7.93364 20.4122 7.72166 20.5 7.50063 20.5H0.833403ZM12.501 20.5C12.28 20.5 12.068 20.4122 11.9117 20.2559C11.7554 20.0996 11.6676 19.8876 11.6676 19.6666V12.9994C11.6676 12.7783 11.7554 12.5664 11.9117 12.4101C12.068 12.2538 12.28 12.166 12.501 12.166H19.1666C19.3876 12.166 19.5996 12.2538 19.7559 12.4101C19.9122 12.5664 20 12.7783 20 12.9994V19.6666C20 19.8876 19.9122 20.0996 19.7559 20.2559C19.5996 20.4122 19.3876 20.5 19.1666 20.5H12.501Z" fill="black"/>
</svg>
