<svg width="19" height="21" viewBox="0 0 19 21" fill="none" xmlns="http://www.w3.org/2000/svg">
<path d="M9.5 0.402847C7.52679 0.402847 5.63439 1.1867 4.23912 2.58197C2.84385 3.97725 2.05999 5.86964 2.05999 7.84285V11.5926C2.06015 11.7575 2.02194 11.9202 1.94839 12.0677L0.123465 15.7165C0.0343189 15.8948 -0.00777495 16.0929 0.00118114 16.292C0.0101372 16.4911 0.0698458 16.6846 0.174636 16.8541C0.279426 17.0237 0.425818 17.1636 0.599909 17.2606C0.773999 17.3577 0.970008 17.4086 1.16932 17.4086H17.8307C18.03 17.4086 18.226 17.3577 18.4001 17.2606C18.5742 17.1636 18.7206 17.0237 18.8254 16.8541C18.9302 16.6846 18.9899 16.4911 18.9988 16.292C19.0078 16.0929 18.9657 15.8948 18.8765 15.7165L17.0527 12.0677C16.9788 11.9202 16.9402 11.7576 16.94 11.5926V7.84285C16.94 5.86964 16.1562 3.97725 14.7609 2.58197C13.3656 1.1867 11.4732 0.402847 9.5 0.402847ZM9.5 20.5972C8.84033 20.5975 8.1968 20.3932 7.65809 20.0125C7.11937 19.6318 6.712 19.0934 6.49211 18.4714H12.5079C12.288 19.0934 11.8806 19.6318 11.3419 20.0125C10.8032 20.3932 10.1597 20.5975 9.5 20.5972Z" fill="black"/>
</svg>
