<svg width="12" height="15" viewBox="0 0 12 15" fill="none" xmlns="http://www.w3.org/2000/svg">
<path d="M5.39749 7.73758V14.2479C5.35952 14.2341 5.3237 14.215 5.29111 14.1912L0.674321 11.4182C0.467885 11.2995 0.296595 11.1283 0.177891 10.9218C0.0545729 10.7063 -0.00678396 10.4608 0.000595194 10.2126V4.48951L5.39749 7.73758ZM12 4.48951V10.2339C11.9906 10.4705 11.925 10.7015 11.8085 10.9076C11.6976 11.1193 11.5276 11.2942 11.3192 11.4112L6.70239 14.1841L6.60311 14.2337V7.73048L8.91505 6.31211V8.27656C8.91505 8.43643 8.97856 8.58976 9.09161 8.70281C9.20465 8.81585 9.35798 8.87936 9.51785 8.87936C9.67773 8.87936 9.83105 8.81585 9.9441 8.70281C10.0572 8.58976 10.1207 8.43643 10.1207 8.27656V5.6242L12 4.48951ZM8.32642 5.30507L6.0003 6.72344L0.567943 3.46119L0.645953 3.41155L2.81606 2.25558L8.32642 5.30507ZM11.4256 3.44701L9.50367 4.59589L4.0855 1.56058L5.26275 0.943586C5.47822 0.818589 5.72282 0.752548 5.97193 0.752106C6.22122 0.757882 6.46507 0.82616 6.68112 0.950678L11.2695 3.40446C11.3241 3.40643 11.3775 3.421 11.4256 3.44701Z" fill="#F9F9F9"/>
</svg>
