<svg width="14" height="16" viewBox="0 0 14 16" fill="none" xmlns="http://www.w3.org/2000/svg">
<path d="M11.6666 5.616V4.66666C11.6666 2.08934 9.57725 0 6.99991 0C4.42256 0 2.33325 2.08934 2.33325 4.66666V5.616C1.11994 6.14553 0.335002 7.34284 0.333252 8.66666V12.6667C0.335439 14.5067 1.82653 15.9978 3.66656 16H10.3332C12.1733 15.9978 13.6643 14.5067 13.6666 12.6667V8.66666C13.6648 7.34284 12.8799 6.14553 11.6666 5.616ZM7.66656 11.3333C7.66656 11.7015 7.3681 12 6.99991 12C6.63172 12 6.33325 11.7015 6.33325 11.3333V10C6.33325 9.63181 6.63172 9.33334 6.99991 9.33334C7.3681 9.33334 7.66656 9.63181 7.66656 10V11.3333ZM10.3333 5.33334H3.66656V4.66669C3.66656 2.82575 5.15894 1.33334 6.99991 1.33334C8.84088 1.33334 10.3333 2.82572 10.3333 4.66669V5.33334Z" fill="black"/>
</svg>
