<svg width="20" height="20" viewBox="0 0 20 20" fill="none" xmlns="http://www.w3.org/2000/svg">
<path d="M18.0435 10.66C17.8831 10.4775 17.7947 10.2429 17.7947 10C17.7947 9.75711 17.8831 9.52251 18.0435 9.34002L19.3235 7.90002C19.4645 7.74269 19.5521 7.54472 19.5736 7.33452C19.5952 7.12433 19.5496 6.9127 19.4435 6.73002L17.4435 3.27002C17.3384 3.08754 17.1783 2.94289 16.9862 2.8567C16.7941 2.77051 16.5796 2.74718 16.3735 2.79002L14.4935 3.17002C14.2542 3.21945 14.0052 3.17961 13.7933 3.05802C13.5815 2.93643 13.4214 2.7415 13.3435 2.51002L12.7335 0.680017C12.6664 0.481396 12.5386 0.308882 12.3681 0.186859C12.1976 0.0648361 11.9931 -0.000523977 11.7835 1.71846e-05H7.78345C7.56538 -0.0113649 7.34959 0.0489435 7.16902 0.171731C6.98845 0.294519 6.85303 0.473036 6.78345 0.680017L6.22345 2.51002C6.14545 2.7415 5.98542 2.93643 5.77356 3.05802C5.5617 3.17961 5.31267 3.21945 5.07345 3.17002L3.14345 2.79002C2.948 2.7624 2.74875 2.79324 2.5708 2.87866C2.39285 2.96407 2.24415 3.10025 2.14345 3.27002L0.143451 6.73002C0.034611 6.91067 -0.0143269 7.1211 0.00363355 7.33124C0.021594 7.54138 0.105533 7.74046 0.243451 7.90002L1.51345 9.34002C1.67377 9.52251 1.76219 9.75711 1.76219 10C1.76219 10.2429 1.67377 10.4775 1.51345 10.66L0.243451 12.1C0.105533 12.2596 0.021594 12.4587 0.00363355 12.6688C-0.0143269 12.8789 0.034611 13.0894 0.143451 13.27L2.14345 16.73C2.24855 16.9125 2.40857 17.0571 2.6007 17.1433C2.79284 17.2295 3.00728 17.2529 3.21345 17.21L5.09345 16.83C5.33267 16.7806 5.5817 16.8204 5.79356 16.942C6.00542 17.0636 6.16545 17.2585 6.24345 17.49L6.85345 19.32C6.92303 19.527 7.05845 19.7055 7.23902 19.8283C7.41959 19.9511 7.63538 20.0114 7.85345 20H11.8535C12.0631 20.0006 12.2676 19.9352 12.4381 19.8132C12.6086 19.6912 12.7364 19.5186 12.8035 19.32L13.4135 17.49C13.4915 17.2585 13.6515 17.0636 13.8633 16.942C14.0752 16.8204 14.3242 16.7806 14.5635 16.83L16.4435 17.21C16.6496 17.2529 16.8641 17.2295 17.0562 17.1433C17.2483 17.0571 17.4084 16.9125 17.5135 16.73L19.5135 13.27C19.6196 13.0873 19.6652 12.8757 19.6436 12.6655C19.6221 12.4553 19.5345 12.2573 19.3935 12.1L18.0435 10.66ZM16.5535 12L17.3535 12.9L16.0735 15.12L14.8935 14.88C14.1732 14.7328 13.424 14.8551 12.788 15.2238C12.1521 15.5925 11.6736 16.1819 11.4435 16.88L11.0635 18H8.50345L8.14345 16.86C7.91331 16.1619 7.43483 15.5725 6.79886 15.2038C6.16288 14.8351 5.41367 14.7128 4.69345 14.86L3.51345 15.1L2.21345 12.89L3.01345 11.99C3.50541 11.44 3.77738 10.7279 3.77738 9.99002C3.77738 9.25208 3.50541 8.54004 3.01345 7.99002L2.21345 7.09002L3.49345 4.89002L4.67345 5.13002C5.39367 5.27724 6.14288 5.1549 6.77886 4.78622C7.41483 4.41753 7.89331 3.82818 8.12345 3.13002L8.50345 2.00002H11.0635L11.4435 3.14002C11.6736 3.83818 12.1521 4.42753 12.788 4.79622C13.424 5.1649 14.1732 5.28724 14.8935 5.14002L16.0735 4.90002L17.3535 7.12002L16.5535 8.02002C16.067 8.56878 15.7984 9.2767 15.7984 10.01C15.7984 10.7433 16.067 11.4513 16.5535 12ZM9.78345 6.00002C8.99233 6.00002 8.21897 6.23461 7.56117 6.67414C6.90337 7.11366 6.39068 7.73838 6.08793 8.46928C5.78518 9.20019 5.70597 10.0045 5.86031 10.7804C6.01465 11.5563 6.39561 12.269 6.95502 12.8284C7.51443 13.3879 8.22717 13.7688 9.00309 13.9232C9.77901 14.0775 10.5833 13.9983 11.3142 13.6955C12.0451 13.3928 12.6698 12.8801 13.1093 12.2223C13.5489 11.5645 13.7835 10.7911 13.7835 10C13.7835 8.93915 13.362 7.92174 12.6119 7.17159C11.8617 6.42144 10.8443 6.00002 9.78345 6.00002ZM9.78345 12C9.38789 12 9.00121 11.8827 8.67231 11.663C8.34341 11.4432 8.08707 11.1308 7.93569 10.7654C7.78432 10.3999 7.74471 9.9978 7.82188 9.60984C7.89905 9.22187 8.08953 8.86551 8.36924 8.5858C8.64894 8.3061 9.00531 8.11562 9.39327 8.03845C9.78123 7.96128 10.1834 8.00088 10.5488 8.15226C10.9143 8.30363 11.2266 8.55998 11.4464 8.88888C11.6662 9.21778 11.7835 9.60445 11.7835 10C11.7835 10.5304 11.5727 11.0392 11.1977 11.4142C10.8226 11.7893 10.3139 12 9.78345 12Z" fill="#757575"/>
</svg>
