<svg width="18" height="20" viewBox="0 0 18 20" fill="none" xmlns="http://www.w3.org/2000/svg">
<path d="M8 0C3.58 0 0 0.5 0 4V14C0.00225164 14.4194 0.0924092 14.8336 0.264654 15.216C0.436898 15.5984 0.687403 15.9404 1 16.22V18C1 18.2652 1.10536 18.5196 1.29289 18.7071C1.48043 18.8946 1.73478 19 2 19H3C3.26522 19 3.51957 18.8946 3.70711 18.7071C3.89464 18.5196 4 18.2652 4 18V17H10C9.40215 15.9257 9.05996 14.728 9 13.5C9.00891 12.6144 9.2296 11.7439 9.64364 10.961C10.0577 10.1782 10.653 9.50578 11.38 9H2V4H14V8C14.1665 7.98957 14.3335 7.98957 14.5 8C15.008 8.00107 15.5131 8.07516 16 8.22V4C16 0.5 12.42 0 8 0ZM3.5 12C3.79667 12 4.08668 12.088 4.33335 12.2528C4.58003 12.4176 4.77229 12.6519 4.88582 12.926C4.99935 13.2001 5.02906 13.5017 4.97118 13.7926C4.9133 14.0836 4.77044 14.3509 4.56066 14.5607C4.35088 14.7704 4.08361 14.9133 3.79264 14.9712C3.50166 15.0291 3.20006 14.9993 2.92597 14.8858C2.65189 14.7723 2.41762 14.58 2.2528 14.3334C2.08797 14.0867 2 13.7967 2 13.5C2 13.1022 2.15804 12.7206 2.43934 12.4393C2.72064 12.158 3.10218 12 3.5 12ZM14.5 10C13.575 10.0104 12.6908 10.3825 12.0366 11.0366C11.3825 11.6908 11.0104 12.575 11 13.5C11 16.1 14.5 20 14.5 20C14.5 20 18 16.1 18 13.5C17.9896 12.575 17.6175 11.6908 16.9634 11.0366C16.3092 10.3825 15.425 10.0104 14.5 10ZM14.5 14.8C14.1817 14.8 13.8765 14.6736 13.6515 14.4485C13.4264 14.2235 13.3 13.9183 13.3 13.6C13.3 13.2817 13.4264 12.9765 13.6515 12.7515C13.8765 12.5264 14.1817 12.4 14.5 12.4C14.8113 12.4211 15.1045 12.5542 15.3251 12.7749C15.5458 12.9955 15.6789 13.2887 15.7 13.6C15.7071 13.7595 15.6809 13.9187 15.6231 14.0675C15.5653 14.2163 15.4772 14.3514 15.3643 14.4643C15.2514 14.5772 15.1163 14.6653 14.9675 14.7231C14.8187 14.7809 14.6595 14.8071 14.5 14.8Z" fill="#F9F9F9"/>
</svg>
