<svg width="29" height="28" viewBox="0 0 29 28" fill="none" xmlns="http://www.w3.org/2000/svg">
<path d="M13.6358 2.8C12.3523 2.8 11.1213 3.31625 10.2138 4.23518C9.30617 5.15411 8.7963 6.40044 8.7963 7.7C8.7963 8.99956 9.30617 10.2459 10.2138 11.1648C11.1213 12.0838 12.3523 12.6 13.6358 12.6C14.9193 12.6 16.1503 12.0838 17.0578 11.1648C17.9654 10.2459 18.4753 8.99956 18.4753 7.7C18.4753 6.40044 17.9654 5.15411 17.0578 4.23518C16.1503 3.31625 14.9193 2.8 13.6358 2.8ZM6.03086 7.7C6.03086 5.65783 6.8321 3.69931 8.2583 2.25528C9.6845 0.811248 11.6188 0 13.6358 0C15.6528 0 17.5871 0.811248 19.0133 2.25528C20.4395 3.69931 21.2407 5.65783 21.2407 7.7C21.2407 9.74217 20.4395 11.7007 19.0133 13.1447C17.5871 14.5888 15.6528 15.4 13.6358 15.4C11.6188 15.4 9.6845 14.5888 8.2583 13.1447C6.8321 11.7007 6.03086 9.74217 6.03086 7.7ZM8.7963 19.6C7.32942 19.6 5.92262 20.19 4.88538 21.2402C3.84815 22.2904 3.26543 23.7148 3.26543 25.2H14.0506V28H0.5V25.2C0.5 22.9722 1.37407 20.8356 2.92993 19.2603C4.48579 17.685 6.59598 16.8 8.7963 16.8H13.9815V19.6H8.7963ZM16.7469 16.8H28.5V19.6H16.7469V16.8ZM16.7469 21H28.5V23.8H16.7469V21ZM16.7469 25.2H28.5V28H16.7469V25.2Z" fill="#F9F9F9"/>
</svg>
