<svg width="11" height="13" viewBox="0 0 11 13" fill="none" xmlns="http://www.w3.org/2000/svg">
<path d="M4.86078 0.301498C4.90633 0.26469 4.95953 0.238531 5.0165 0.224936C5.07346 0.21134 5.13275 0.210652 5.19001 0.222921L10.6904 1.40079C10.7781 1.41982 10.8567 1.46833 10.913 1.53825C10.9694 1.60816 11.0001 1.69525 11 1.78503V11.2143C11 11.3042 10.9692 11.3913 10.9127 11.4613C10.8563 11.5312 10.7775 11.5796 10.6896 11.5985L5.18923 12.7772C5.13211 12.7893 5.073 12.7886 5.01621 12.775C4.95941 12.7614 4.90636 12.7354 4.8609 12.6987C4.81544 12.6621 4.77872 12.6158 4.75342 12.5631C4.72812 12.5105 4.71486 12.4529 4.71462 12.3945V0.607949C4.71463 0.549323 4.72777 0.491443 4.75306 0.438553C4.77835 0.385662 4.81515 0.339101 4.86078 0.302284M7.46639 6.50044C7.46639 6.34414 7.4043 6.19424 7.29378 6.08372C7.18326 5.9732 7.03336 5.91111 6.87706 5.91111C6.72076 5.91111 6.57087 5.9732 6.46034 6.08372C6.34982 6.19424 6.28773 6.34414 6.28773 6.50044C6.28773 6.65674 6.34982 6.80664 6.46034 6.91716C6.57087 7.02768 6.72076 7.08977 6.87706 7.08977C7.03336 7.08977 7.18326 7.02768 7.29378 6.91716C7.4043 6.80664 7.46639 6.65674 7.46639 6.50044ZM3.93042 1.00162H0.392885C0.288686 1.00162 0.188754 1.04301 0.115073 1.11669C0.0413932 1.19037 0 1.29031 0 1.39451V11.6056C0 11.7098 0.0413932 11.8097 0.115073 11.8834C0.188754 11.9571 0.288686 11.9985 0.392885 11.9985H3.93042V1.00162Z" fill="#F9F9F9"/>
</svg>
