<svg width="13" height="13" viewBox="0 0 13 13" fill="none" xmlns="http://www.w3.org/2000/svg">
<path d="M1.44444 13C1.23981 13 1.06841 12.9307 0.930223 12.792C0.792038 12.6533 0.722704 12.4819 0.722223 12.2778V10.1111C0.722223 9.71389 0.863778 9.37396 1.14689 9.09133C1.43 8.8087 1.76993 8.66715 2.16667 8.66667H10.8333C11.2305 8.66667 11.5707 8.80822 11.8538 9.09133C12.1369 9.37444 12.2782 9.71437 12.2778 10.1111V12.2778C12.2778 12.4824 12.2084 12.6541 12.0698 12.7927C11.9311 12.9314 11.7597 13.0005 11.5555 13C11.3514 12.9995 11.18 12.9302 11.0413 12.792C10.9027 12.6538 10.8333 12.4824 10.8333 12.2778V10.1111H2.16667V12.2778C2.16667 12.4824 2.09733 12.6541 1.95867 12.7927C1.82 12.9314 1.64859 13.0005 1.44444 13ZM1.08333 7.94444C0.782408 7.94444 0.526742 7.83924 0.316335 7.62883C0.105927 7.41842 0.000483122 7.16252 1.64141e-06 6.86111C-0.000479839 6.5597 0.104964 6.30404 0.316335 6.09411C0.527705 5.88418 0.783371 5.77874 1.08333 5.77778C1.3833 5.77681 1.6392 5.88226 1.85106 6.09411C2.06291 6.30596 2.16811 6.56163 2.16667 6.86111C2.16522 7.16059 2.06002 7.4165 1.85106 7.62883C1.64209 7.84117 1.38619 7.94637 1.08333 7.94444ZM2.88889 7.94444V1.44444C2.88889 1.04722 3.03044 0.707296 3.31355 0.424667C3.59666 0.142037 3.93659 0.000481481 4.33333 0H8.66666C9.06388 0 9.40405 0.141556 9.68716 0.424667C9.97027 0.707778 10.1116 1.0477 10.1111 1.44444V7.94444H2.88889ZM11.9167 7.94444C11.6157 7.94444 11.3601 7.83924 11.1497 7.62883C10.9392 7.41842 10.8338 7.16252 10.8333 6.86111C10.8328 6.5597 10.9383 6.30404 11.1497 6.09411C11.361 5.88418 11.6167 5.77874 11.9167 5.77778C12.2166 5.77681 12.4725 5.88226 12.6844 6.09411C12.8962 6.30596 13.0014 6.56163 13 6.86111C12.9985 7.16059 12.8933 7.4165 12.6844 7.62883C12.4754 7.84117 12.2195 7.94637 11.9167 7.94444Z" fill="#FF3C3C"/>
</svg>
