<svg width="103" height="100" viewBox="0 0 103 100" fill="none" xmlns="http://www.w3.org/2000/svg">
<g clip-path="url(#clip0_1312_571)">
<circle cx="61" cy="61" r="61" fill="#FF3B3B"/>
<path fill-rule="evenodd" clip-rule="evenodd" d="M41.8437 28.0705C42.2943 26.7363 43.1518 25.5769 44.2956 24.7554C45.4393 23.9338 46.8118 23.4914 48.22 23.4903H49.4234C50.9771 20.8051 53.8778 19 57.1917 19H61.682C65.0049 19 67.9236 20.8051 69.4503 23.4903H70.6537C72.0619 23.4914 73.4344 23.9338 74.5782 24.7554C75.7219 25.5769 76.5794 26.7363 77.03 28.0705C79.8544 28.2232 81.8347 28.5779 83.4961 29.4311C86.0247 30.7271 88.0823 32.7848 89.3784 35.3134C90.8468 38.1962 90.8468 41.9591 90.8468 49.5029V65.5783L86.3564 56.5976V49.5029C86.3564 45.6546 86.3564 43.0368 86.1858 41.0161C86.0286 39.0494 85.7368 38.039 85.3775 37.3385C84.5165 35.6488 83.1427 34.275 81.453 33.414C80.7525 33.0548 79.7467 32.7629 77.7754 32.6057L77.3758 32.5743V34.6847C77.3758 36.4711 76.6661 38.1843 75.403 39.4475C74.1398 40.7106 72.4266 41.4203 70.6402 41.4203H48.1886C46.4022 41.4203 44.689 40.7106 43.4258 39.4475C42.1627 38.1843 41.4531 36.4711 41.4531 34.6847V32.5743L41.0534 32.6057C39.0866 32.7674 38.0763 33.0592 37.3758 33.414C35.6861 34.275 34.3123 35.6488 33.4513 37.3385C33.092 38.039 32.8002 39.0494 32.643 41.0161C32.4814 43.0368 32.4769 45.6412 32.4769 49.5029V69.2603C32.4769 73.1086 32.4769 75.7264 32.643 77.7471C32.8047 79.7139 33.0965 80.7242 33.4513 81.4247C34.3134 83.113 35.6875 84.4871 37.3758 85.3492C38.0763 85.7085 39.0866 86.0003 41.0579 86.1575C43.0786 86.3236 45.683 86.3281 49.5446 86.3281H50.4517C50.5505 87.9357 51.0579 89.4803 51.8886 90.8185H49.5402C41.9964 90.8185 38.2245 90.8185 35.3507 89.3501C32.8184 88.059 30.7594 86 29.4683 83.4678C28 80.585 28 76.8221 28 69.2783V49.5208C28 41.9771 28 38.2052 29.4683 35.3314C30.7644 32.8027 32.8221 30.7451 35.3507 29.449C37.0211 28.5959 38.9879 28.2366 41.8168 28.084L41.8437 28.0705ZM50.7346 27.9627C51.1287 27.9627 51.5158 27.859 51.8571 27.6619C52.1984 27.4648 52.4818 27.1814 52.6789 26.8401L53.3255 25.7175C53.7194 25.0334 54.2867 24.4653 54.9702 24.0703C55.6537 23.6754 56.4292 23.4676 57.2186 23.4679H61.709C62.4979 23.4671 63.2732 23.6742 63.9566 24.0684C64.6401 24.4625 65.2076 25.0298 65.6021 25.7131L66.2487 26.8356C66.4458 27.1769 66.7292 27.4604 67.0705 27.6574C67.4118 27.8545 67.7989 27.9582 68.193 27.9582H70.6896C71.2851 27.9582 71.8562 28.1948 72.2772 28.6158C72.6983 29.0369 72.9348 29.6079 72.9348 30.2034V34.6937C72.9348 35.2892 72.6983 35.8603 72.2772 36.2813C71.8562 36.7024 71.2851 36.9389 70.6896 36.9389H48.238C47.6425 36.9389 47.0714 36.7024 46.6504 36.2813C46.2293 35.8603 45.9928 35.2892 45.9928 34.6937V30.2034C45.9928 29.6079 46.2293 29.0369 46.6504 28.6158C47.0714 28.1948 47.6425 27.9582 48.238 27.9582L50.7346 27.9627Z" fill="#F9F9F9"/>
<path fill-rule="evenodd" clip-rule="evenodd" d="M55.4945 83.6608L70.6719 53.351C72.5309 49.6375 77.8115 49.6375 79.6525 53.351L94.8299 83.6608C95.2159 84.4291 95.3993 85.2833 95.3629 86.1424C95.3265 87.0016 95.0714 87.8371 94.6217 88.5701C94.1721 89.303 93.5427 89.9091 92.7934 90.3308C92.044 90.7525 91.1994 90.976 90.3395 90.98H59.9848C56.2399 90.98 53.7882 87.0195 55.4945 83.6608ZM78.5299 65.1606C78.5299 62.7807 76.7922 61.7928 75.1622 61.7928C73.5322 61.7928 71.7944 62.7897 71.7944 65.1606C71.7944 67.5315 72.6386 71.8063 72.917 73.0187C73.1954 74.2311 73.9229 75.2638 75.1622 75.2638C76.4015 75.2638 77.093 74.2445 77.4074 73.0187C77.7217 71.7928 78.5299 67.4956 78.5299 65.1606ZM78.5299 81.9993C78.5299 82.8925 78.1751 83.7491 77.5435 84.3807C76.912 85.0123 76.0554 85.3671 75.1622 85.3671C74.269 85.3671 73.4124 85.0123 72.7808 84.3807C72.1493 83.7491 71.7944 82.8925 71.7944 81.9993C71.7944 81.1062 72.1493 80.2496 72.7808 79.618C73.4124 78.9864 74.269 78.6316 75.1622 78.6316C76.0554 78.6316 76.912 78.9864 77.5435 79.618C78.1751 80.2496 78.5299 81.1062 78.5299 81.9993Z" fill="#F9F9F9"/>
</g>
<defs>
<clipPath id="clip0_1312_571">
<rect width="103" height="100" fill="white"/>
</clipPath>
</defs>
</svg>
