<svg width="103" height="100" viewBox="0 0 103 100" fill="none" xmlns="http://www.w3.org/2000/svg">
<g clip-path="url(#clip0_1210_131)">
<circle cx="61" cy="61" r="61" fill="#FF3B3B"/>
<path d="M73.5841 44.6341C74.0096 44.2117 74.2486 43.6389 74.2486 43.0415C74.2486 42.4442 74.0096 41.8714 73.5841 41.449C73.1587 41.0266 72.5817 40.7894 71.98 40.7894C71.3784 40.7894 70.8013 41.0266 70.3759 41.449L53.8543 57.8557L46.3956 50.4464C46.1849 50.2372 45.9348 50.0713 45.6596 49.9582C45.3844 49.845 45.0894 49.7867 44.7915 49.7867C44.4935 49.7867 44.1985 49.845 43.9233 49.9582C43.6481 50.0713 43.398 50.2372 43.1873 50.4464C42.9767 50.6555 42.8096 50.9038 42.6956 51.177C42.5816 51.4503 42.5229 51.7431 42.5229 52.0389C42.5229 52.3347 42.5816 52.6275 42.6956 52.9008C42.8096 53.174 42.9767 53.4223 43.1873 53.6314L52.2502 62.6288C52.4606 62.8382 52.7107 63.0044 52.9859 63.1178C53.2612 63.2312 53.5563 63.2896 53.8543 63.2896C54.1523 63.2896 54.4474 63.2312 54.7227 63.1178C54.9979 63.0044 55.248 62.8382 55.4584 62.6288L73.5841 44.6341ZM57.3752 18.6767C57.0034 18.4311 56.5667 18.3 56.12 18.3C55.6734 18.3 55.2367 18.4311 54.8648 18.6767C46.3101 24.4022 36.5584 28.1261 26.344 29.568C25.8043 29.6449 25.3106 29.9124 24.9536 30.3214C24.5965 30.7304 24.4 31.2536 24.4 31.7949V52.0389C24.4 69.5432 34.854 82.315 55.3044 90.1292C55.8293 90.3303 56.4108 90.3303 56.9357 90.1292C77.386 82.315 87.84 69.5387 87.84 52.0389V31.7949C87.8399 31.2529 87.6428 30.7292 87.2848 30.3201C86.9268 29.9109 86.432 29.6439 85.8915 29.568C75.6787 28.1254 65.9286 24.4015 57.3752 18.6767ZM28.9315 33.7203C37.9074 32.2077 46.5162 29.0302 54.3075 24.354L56.12 23.2339L57.9326 24.354C65.7239 29.0302 74.3326 32.2077 83.3086 33.7203V52.0389C83.3086 67.2984 74.3907 78.4146 56.12 85.6125C37.8493 78.4146 28.9315 67.3029 28.9315 52.0389V33.7203Z" fill="#F9F9F9"/>
</g>
<defs>
<clipPath id="clip0_1210_131">
<rect width="103" height="100" fill="white"/>
</clipPath>
</defs>
</svg>
