<svg width="103" height="100" viewBox="0 0 103 100" fill="none" xmlns="http://www.w3.org/2000/svg">
<g clip-path="url(#clip0_1312_580)">
<circle cx="61" cy="61" r="61" fill="#FF3B3B"/>
<path d="M64.9374 82.8747H55.9562C46.0768 82.8747 41.1372 82.8747 38.0686 79.6415C35 76.4172 35 71.2171 35 60.8199V45.0579C35 34.6606 35 29.4605 38.0686 26.2302C41.1372 23 46.0768 23 55.9562 23H64.9374C74.8167 23 79.7564 23 82.8249 26.2332C85.8935 29.4575 85.8935 34.6576 85.8935 45.0549V49.9436M81.4029 61.9186V82.8747M91.881 72.3967H70.9248" stroke="#F9F9F9" stroke-width="5.5" stroke-linecap="round" stroke-linejoin="round"/>
<path d="M48.4719 23L48.7173 24.4759C49.3161 28.0594 49.6155 29.8527 50.8728 30.9184C52.1242 31.9812 53.9414 31.9812 57.5758 31.9812H63.3148C66.9462 31.9812 68.7634 31.9812 70.0208 30.9184C71.2782 29.8527 71.5775 28.0594 72.1733 24.4759L72.4218 23M48.4719 64.9123H60.4468M48.4719 49.9436H72.4218" stroke="#F9F9F9" stroke-width="5.5" stroke-linecap="round" stroke-linejoin="round"/>
</g>
<defs>
<clipPath id="clip0_1312_580">
<rect width="103" height="100" fill="white"/>
</clipPath>
</defs>
</svg>
