<svg width="17" height="16" viewBox="0 0 17 16" fill="none" xmlns="http://www.w3.org/2000/svg">
<path d="M8.75001 0C13.1684 0 16.75 3.5816 16.75 7.99999C16.75 12.4184 13.1684 16 8.75001 16C7.33621 16.0024 5.94727 15.6283 4.72601 14.916L0.753212 16L1.83481 12.0256C1.12198 10.8039 0.747535 9.41441 0.750012 7.99999C0.750012 3.5816 4.33161 0 8.75001 0ZM6.02361 4.24L5.86361 4.2464C5.76016 4.25352 5.65909 4.2807 5.56601 4.3264C5.47927 4.37561 5.40006 4.43703 5.33081 4.5088C5.23481 4.5992 5.18041 4.6776 5.12201 4.7536C4.82611 5.13832 4.66679 5.61065 4.66921 6.096C4.67081 6.488 4.77321 6.8696 4.93321 7.22639C5.26041 7.94799 5.79881 8.71199 6.50921 9.41999C6.68041 9.59039 6.84841 9.76159 7.02921 9.92079C7.91195 10.6979 8.96383 11.2584 10.1012 11.5576L10.5556 11.6272C10.7036 11.6352 10.8516 11.624 11.0004 11.6168C11.2334 11.6045 11.4608 11.5414 11.6668 11.432C11.7715 11.3779 11.8737 11.3191 11.9732 11.256C11.9732 11.256 12.0071 11.2331 12.0732 11.184C12.1812 11.104 12.2476 11.0472 12.3372 10.9536C12.4044 10.8843 12.4604 10.8037 12.5052 10.712C12.5676 10.5816 12.63 10.3328 12.6556 10.1256C12.6748 9.96719 12.6692 9.88079 12.6668 9.82719C12.6636 9.74159 12.5924 9.65279 12.5148 9.61519L12.0492 9.40639C12.0492 9.40639 11.3532 9.10319 10.9276 8.90959C10.8831 8.8902 10.8353 8.87908 10.7868 8.87679C10.7321 8.87107 10.6767 8.87718 10.6246 8.8947C10.5724 8.91223 10.5246 8.94077 10.4844 8.97839C10.4804 8.97679 10.4268 9.02239 9.84841 9.72319C9.81521 9.7678 9.76948 9.80152 9.71705 9.82004C9.66462 9.83856 9.60786 9.84105 9.55401 9.82719C9.50187 9.8133 9.4508 9.79565 9.40121 9.77439C9.30201 9.73279 9.26761 9.71679 9.19961 9.68799C8.74031 9.48792 8.31516 9.21718 7.93961 8.88559C7.83881 8.79759 7.74521 8.70159 7.64921 8.60879C7.3345 8.30736 7.06021 7.96638 6.83321 7.59439L6.78601 7.51839C6.75262 7.46703 6.72524 7.412 6.70441 7.35439C6.67401 7.23679 6.75321 7.1424 6.75321 7.1424C6.75321 7.1424 6.94761 6.92959 7.03801 6.81439C7.12601 6.70239 7.20041 6.5936 7.24841 6.516C7.34281 6.364 7.37241 6.208 7.32281 6.0872C7.09881 5.54 6.86734 4.99573 6.62841 4.4544C6.58121 4.3472 6.44121 4.2704 6.31401 4.2552C6.27081 4.24986 6.22761 4.2456 6.18441 4.2424C6.07699 4.23624 5.96928 4.2373 5.86201 4.2456L6.02361 4.24Z" fill="#F9F9F9"/>
</svg>
